<svg xmlns="http://www.w3.org/2000/svg" width="379.3074035644531" height="370.870849609375" viewBox="-92.2388916015625 -83.58338928222656 379.3074035644531 370.870849609375"><title>Neo4j Graph Visualization</title><desc>Created using Neo4j (http://www.neo4j.com/)</desc><g class="layer relationships"><g class="relationship" transform="translate(155.23651589124674 258.28746311275006) rotate(304.3668795437335)"><path class="outline" fill="#A5ABB6" stroke="none" d="M 24.018736134675446,6.953439040707552 L 24.277555179777966,5.987513214418485 A 100.07790079751379 100.07790079751379 0 0 0 25.474861072980016,6.300409188089063 L 25.228005766961356,7.269461538527594 A 101.07790079751379 101.07790079751379 0 0 1 24.018736134675446,6.953439040707552 Z M 71.91989871109251,8.03190427679533 L 71.70481433914271,7.055308806325101 A 100.07790079751379 100.07790079751379 0 0 0 72.91169787182388,6.781671398833846 L 72.23026643319602,3.860087719654082 L 79.84229836301463,5.678595321898809 L 73.8202731233277,10.677116304406866 L 73.13884168469984,7.755532625227102 A 101.07790079751379 101.07790079751379 0 0 1 71.91989871109251,8.03190427679533"/><text text-anchor="middle" pointer-events="none" font-size="8px" fill="#000000" x="48.537480973072554" y="12.884178434614483" font-family="sans-serif">DIRECTED</text></g><g class="relationship" transform="translate(155.23651589124674 258.28746311275006) rotate(304.3668795437335)"><path class="outline" fill="#A5ABB6" stroke="none" d="M 24.018736134675446,-6.953439040707552 L 24.277555179777966,-5.987513214418485 A 100.07790079751379 100.07790079751379 0 0 1 30.869642660471182,-7.516990316251963 L 30.676693177261562,-8.498199008085223 A 101.07790079751379 101.07790079751379 0 0 0 24.018736134675446,-6.953439040707552 Z M 66.43399826326474,-9.082088327703701 L 66.27318787607861,-8.095103008981567 A 100.07790079751379 100.07790079751379 0 0 1 72.91169787182388,-6.781671398833846 L 72.23026643319602,-3.860087719654082 L 79.84229836301463,-5.678595321898809 L 73.8202731233277,-10.677116304406866 L 73.13884168469984,-7.755532625227102 A 101.07790079751379 101.07790079751379 0 0 0 66.43399826326474,-9.082088327703701"/><text text-anchor="middle" pointer-events="none" font-size="8px" fill="#000000" x="48.53748097307253" y="-6.884178434614483" font-family="sans-serif">WROTE</text></g><g class="relationship" transform="translate(258.0685181992182 77.76004768343029) rotate(474.97029657889357)"><path class="outline" fill="#A5ABB6" stroke="none" d="M 24.018736134675446,6.953439040707552 L 24.277555179777966,5.987513214418485 A 100.24543846474445 100.24543846474445 0 0 0 25.51571976607137,6.310822429789809 L 25.269252051914734,7.279973432409307 A 101.24543846474445 101.24543846474445 0 0 1 24.018736134675446,6.953439040707552 Z M 71.96218063788183,8.041858654135197 L 71.74746284784187,7.065182520178624 A 100.24543846474445 100.24543846474445 0 0 0 72.99551632531895,6.78244074956048 L 72.31401302197747,3.8608738330694896 L 79.9260896810215,5.679194194512224 L 73.9041873964409,10.6778633048818 L 73.22268409309943,7.756296388390809 A 101.24543846474445 101.24543846474445 0 0 1 71.96218063788183,8.041858654135197"/><text text-anchor="middle" pointer-events="none" font-size="8px" fill="#000000" x="48.57934641514033" y="12.889885032876222" transform="rotate(180 48.57934641514033 9.889885032876222)" font-family="sans-serif">DIRECTED</text></g><g class="relationship" transform="translate(258.0685181992182 77.76004768343029) rotate(474.97029657889357)"><path class="outline" fill="#A5ABB6" stroke="none" d="M 24.018736134675446,-6.953439040707552 L 24.277555179777966,-5.987513214418485 A 100.24543846474445 100.24543846474445 0 0 1 30.910978788105837,-7.52550435620978 L 30.71833156797529,-8.506772438120109 A 101.24543846474445 101.24543846474445 0 0 0 24.018736134675446,-6.953439040707552 Z M 66.47597736976269,-9.090227422099815 L 66.31544674460947,-8.103196562203365 A 100.24543846474445 100.24543846474445 0 0 1 72.99551632531895,-6.78244074956048 L 72.31401302197747,-3.8608738330694896 L 79.9260896810215,-5.679194194512224 L 73.9041873964409,-10.6778633048818 L 73.22268409309943,-7.756296388390809 A 101.24543846474445 101.24543846474445 0 0 0 66.47597736976269,-9.090227422099815"/><text text-anchor="middle" pointer-events="none" font-size="8px" fill="#000000" x="48.57934641514028" y="-6.889885032876222" transform="rotate(180 48.57934641514028 -9.889885032876222)" font-family="sans-serif">WROTE</text></g><g class="relationship" transform="translate(140.17016908979028 -54.58338437183574) rotate(533.6205937341725)"><path class="outline" fill="#A5ABB6" stroke="none" d="M 21.40063509461097,12.933012701892217 L 21.90063509461097,12.06698729810778 A 56.682832321747405 56.682832321747405 0 0 0 23.842638389255352,13.138103706929662 L 23.37689926181763,14.023025774217828 A 57.682832321747405 57.682832321747405 0 0 1 21.40063509461097,12.933012701892217 Z M 73.81910454902126,15.622603638956747 L 73.41036849455662,14.70995100088426 A 56.682832321747405 56.682832321747405 0 0 0 75.41633429663362,13.76402903869358 L 74.08395823090073,11.07613506395013 L 81.91014958199048,11.103133881107413 L 77.1928357176108,17.34788767168485 L 75.86045965187792,14.659993696941397 A 57.682832321747405 57.682832321747405 0 0 1 73.81910454902126,15.622603638956747"/><text text-anchor="middle" pointer-events="none" font-size="8px" fill="#000000" x="48.429631736338095" y="23.132317182372518" transform="rotate(180 48.429631736338095 20.132317182372518)" font-family="sans-serif">PRODUCED</text></g><g class="relationship" transform="translate(140.17016908979028 -54.58338437183574) rotate(533.6205937341725)"><path class="outline" fill="#A5ABB6" stroke="none" d="M 25 0.5 L 25.209320519092955 0.5 L 25.209320519092955 -0.5 L 25 -0.5 Z M 72.09994551909296 0.5 L 72.30926603818591 0.5 L 72.30926603818591 3.5 L 79.30926603818591 0 L 72.30926603818591 -3.5 L 72.30926603818591 -0.5 L 72.09994551909296 -0.5 Z"/><text text-anchor="middle" pointer-events="none" font-size="8px" fill="#000000" x="48.654633019092955" y="3" transform="rotate(180 48.654633019092955 0)" font-family="sans-serif">DIRECTED</text></g><g class="relationship" transform="translate(140.17016908979028 -54.58338437183574) rotate(533.6205937341725)"><path class="outline" fill="#A5ABB6" stroke="none" d="M 21.40063509461097,-12.933012701892217 L 21.90063509461097,-12.06698729810778 A 56.682832321747405 56.682832321747405 0 0 1 31.098820448438897,-16.330629623537448 L 30.761095073348542,-17.27187431596343 A 57.682832321747405 57.682832321747405 0 0 0 21.40063509461097,-12.933012701892217 Z M 66.2439026886498,-18.39707321075926 L 65.96649170189538,-17.436321867055824 A 56.682832321747405 56.682832321747405 0 0 1 75.41633429663362,-13.76402903869358 L 74.08395823090073,-11.07613506395013 L 81.91014958199048,-11.103133881107413 L 77.1928357176108,-17.34788767168485 L 75.86045965187792,-14.659993696941397 A 57.682832321747405 57.682832321747405 0 0 0 66.2439026886498,-18.39707321075926"/><text text-anchor="middle" pointer-events="none" font-size="8px" fill="#000000" x="48.429631736338095" y="-17.132317182372518" transform="rotate(180 48.429631736338095 -20.132317182372518)" font-family="sans-serif">WROTE</text></g><g class="relationship" transform="translate(-63.23888313086133 102.12018292793833) rotate(431.4134862945382)"><path class="outline" fill="#A5ABB6" stroke="none" d="M 21.40063509461097,12.933012701892217 L 21.90063509461097,12.06698729810778 A 57.58054571475378 57.58054571475378 0 0 0 31.520145914980418,16.496270172462246 L 31.187207735964595,17.439218829046283 A 58.58054571475378 58.58054571475378 0 0 1 21.40063509461097,12.933012701892217 Z M 66.68340383499697,18.556077034324538 L 66.41040371716124,17.59406303460225 A 57.58054571475378 57.58054571475378 0 0 0 76.28933858131477,13.778282491375762 L 74.95563653082684,11.091046208403178 L 82.78184024999878,11.114183754066039 L 78.06760798196532,17.361264202005874 L 76.7339059314774,14.67402791903329 A 58.58054571475378 58.58054571475378 0 0 1 66.68340383499697,18.556077034324538"/><text text-anchor="middle" pointer-events="none" font-size="8px" fill="#000000" x="48.86435593599926" y="23.252589300688932" font-family="sans-serif">WROTE</text></g><g class="relationship" transform="translate(-63.23888313086133 102.12018292793833) rotate(431.4134862945382)"><path class="outline" fill="#A5ABB6" stroke="none" d="M 25 0.5 L 25.6424254707185 0.5 L 25.6424254707185 -0.5 L 25 -0.5 Z M 72.5330504707185 0.5 L 73.175475941437 0.5 L 73.175475941437 3.5 L 80.175475941437 0 L 73.175475941437 -3.5 L 73.175475941437 -0.5 L 72.5330504707185 -0.5 Z"/><text text-anchor="middle" pointer-events="none" font-size="8px" fill="#000000" x="49.0877379707185" y="3" font-family="sans-serif">DIRECTED</text></g><g class="relationship" transform="translate(-63.23888313086133 102.12018292793833) rotate(431.4134862945382)"><path class="outline" fill="#A5ABB6" stroke="none" d="M 21.40063509461097,-12.933012701892217 L 21.90063509461097,-12.06698729810778 A 57.58054571475378 57.58054571475378 0 0 1 24.243251584200927,-13.348017398661682 L 23.78393575036349,-14.236290422447851 A 58.58054571475378 58.58054571475378 0 0 0 21.40063509461097,-12.933012701892217 Z M 74.27338753326332,-15.82489891295792 L 73.87082249578303,-14.909507526392318 A 57.58054571475378 57.58054571475378 0 0 1 76.28933858131477,-13.778282491375762 L 74.95563653082684,-11.091046208403178 L 82.78184024999878,-11.114183754066039 L 78.06760798196532,-17.361264202005874 L 76.7339059314774,-14.67402791903329 A 58.58054571475378 58.58054571475378 0 0 0 74.27338753326332,-15.82489891295792"/><text text-anchor="middle" pointer-events="none" font-size="8px" fill="#000000" x="48.864355935999235" y="-17.252589300688932" font-family="sans-serif">PRODUCED</text></g></g><g class="layer nodes"><g class="node" transform="translate(155.23651589124674,258.28746311275006)"><circle class="outline" cx="0" cy="0" r="25" fill="#F79767" stroke="#f36924" stroke-width="2px"/><text text-anchor="middle" pointer-events="none" font-family="sans-serif" dy="1.5625" font-size="25" fill="#FFFFFF"/><text text-anchor="middle" pointer-events="none" font-family="sans-serif" dy="1.5625" font-size="25" fill="#FFFFFF"/><text text-anchor="middle" pointer-events="none" x="0" y="0" font-size="10px" fill="#FFFFFF" font-family="sans-serif"> Lilly</text><text text-anchor="middle" pointer-events="none" x="0" y="10" font-size="10px" fill="#FFFFFF" font-family="sans-serif"> Wacho…</text></g><g class="node" transform="translate(214.050062059556,172.2858417311738)"><circle class="outline" cx="0" cy="0" r="25" fill="#57C7E3" stroke="#23b3d7" stroke-width="2px"/><text text-anchor="middle" pointer-events="none" font-family="sans-serif" dy="1.5625" font-size="25" fill="#2A2C34"/><text text-anchor="middle" pointer-events="none" font-family="sans-serif" dy="1.5625" font-size="25" fill="#2A2C34"/><text text-anchor="middle" pointer-events="none" x="0" y="0" font-size="10px" fill="#2A2C34" font-family="sans-serif"> Speed</text><text text-anchor="middle" pointer-events="none" x="0" y="10" font-size="10px" fill="#2A2C34" font-family="sans-serif"> Racer</text></g><g class="node" transform="translate(258.0685181992182,77.76004768343029)"><circle class="outline" cx="0" cy="0" r="25" fill="#F79767" stroke="#f36924" stroke-width="2px"/><text text-anchor="middle" pointer-events="none" font-family="sans-serif" dy="1.5625" font-size="25" fill="#FFFFFF"/><text text-anchor="middle" pointer-events="none" font-family="sans-serif" dy="1.5625" font-size="25" fill="#FFFFFF"/><text text-anchor="middle" pointer-events="none" x="0" y="0" font-size="10px" fill="#FFFFFF" font-family="sans-serif"> Lana</text><text text-anchor="middle" pointer-events="none" x="0" y="10" font-size="10px" fill="#FFFFFF" font-family="sans-serif"> Wacho…</text></g><g class="node" transform="translate(140.17016908979028,-54.58338437183574)"><circle class="outline" cx="0" cy="0" r="25" fill="#F79767" stroke="#f36924" stroke-width="2px"/><text text-anchor="middle" pointer-events="none" font-family="sans-serif" dy="1.5625" font-size="25" fill="#FFFFFF"/><text text-anchor="middle" pointer-events="none" font-family="sans-serif" dy="1.5625" font-size="25" fill="#FFFFFF"/><text text-anchor="middle" pointer-events="none" x="0" y="0" font-size="10px" fill="#FFFFFF" font-family="sans-serif"> Cameron</text><text text-anchor="middle" pointer-events="none" x="0" y="10" font-size="10px" fill="#FFFFFF" font-family="sans-serif"> Crowe</text></g><g class="node" transform="translate(36.506794363804175,-42.993400685702625)"><circle class="outline" cx="0" cy="0" r="25" fill="#57C7E3" stroke="#23b3d7" stroke-width="2px"/><text text-anchor="middle" pointer-events="none" font-family="sans-serif" dy="1.5625" font-size="25" fill="#2A2C34"/><text text-anchor="middle" pointer-events="none" font-family="sans-serif" dy="1.5625" font-size="25" fill="#2A2C34"/><text text-anchor="middle" pointer-events="none" x="0" y="0" font-size="10px" fill="#2A2C34" font-family="sans-serif"> Jerry</text><text text-anchor="middle" pointer-events="none" x="0" y="10" font-size="10px" fill="#2A2C34" font-family="sans-serif"> Maguire</text></g><g class="node" transform="translate(-63.23888313086133,102.12018292793833)"><circle class="outline" cx="0" cy="0" r="25" fill="#F79767" stroke="#f36924" stroke-width="2px"/><text text-anchor="middle" pointer-events="none" font-family="sans-serif" dy="1.5625" font-size="25" fill="#FFFFFF"/><text text-anchor="middle" pointer-events="none" font-family="sans-serif" dy="1.5625" font-size="25" fill="#FFFFFF"/><text text-anchor="middle" pointer-events="none" x="0" y="0" font-size="10px" fill="#FFFFFF" font-family="sans-serif"> Nancy</text><text text-anchor="middle" pointer-events="none" x="0" y="10" font-size="10px" fill="#FFFFFF" font-family="sans-serif"> Meyers</text></g><g class="node" transform="translate(-29.71565007051217,201.81007000124836)"><circle class="outline" cx="0" cy="0" r="25" fill="#57C7E3" stroke="#23b3d7" stroke-width="2px"/><text text-anchor="middle" pointer-events="none" font-family="sans-serif" dy="1.5625" font-size="25" fill="#2A2C34"/><text text-anchor="middle" pointer-events="none" x="0" y="5" font-size="10px" fill="#2A2C34" font-family="sans-serif"> Somethi…</text></g></g></svg>