<svg xmlns="http://www.w3.org/2000/svg" width="163.51800537109375" height="242.55108642578125" viewBox="-0.3456535339355469 -20.133377075195312 163.51800537109375 242.55108642578125"><title>Neo4j Graph Visualization</title><desc>Created using Neo4j (http://www.neo4j.com/)</desc><g class="layer relationships"><g class="relationship" transform="translate(134.1723285690021 8.866621054666762) rotate(520.8771661027272)"><path class="outline" fill="#A5ABB6" stroke="none" d="M 21.40063509461097,12.933012701892217 L 21.90063509461097,12.06698729810778 A 59.922996971315946 59.922996971315946 0 0 0 40.496189872268715,19.007350760022696 L 40.306514050256,19.989197531440624 A 60.922996971315946 60.922996971315946 0 0 1 21.40063509461097,12.933012701892217 Z M 59.71015165953134,20.587546464062278 L 59.581333011903794,19.595878295760293 A 59.922996971315946 59.922996971315946 0 0 0 78.56918830807359,13.814472435239008 L 77.23211959934785,11.128909688225548 L 85.05834616922596,11.142239239381185 L 80.35194658637458,17.395222764590287 L 79.01487787764884,14.709660017576827 A 60.922996971315946 60.922996971315946 0 0 1 59.71015165953134,20.587546464062278"/><text text-anchor="middle" pointer-events="none" font-size="8px" fill="#000000" x="49.99975813434824" y="23.56643845862949" transform="rotate(180 49.99975813434824 20.56643845862949)" font-family="sans-serif">trek</text></g><g class="relationship" transform="translate(32.66289210968899 44.06272638939209) rotate(452.15284371475707)"><path class="outline" fill="#A5ABB6" stroke="none" d="M 25 0.5 L 40.18631071025008 0.5 L 40.18631071025008 -0.5 L 25 -0.5 Z M 59.52224821025008 0.5 L 74.70855892050017 0.5 L 74.70855892050017 3.5 L 81.70855892050017 0 L 74.70855892050017 -3.5 L 74.70855892050017 -0.5 L 59.52224821025008 -0.5 Z"/><text text-anchor="middle" pointer-events="none" font-size="8px" fill="#000000" x="49.85427946025008" y="3" transform="rotate(180 49.85427946025008 0)" font-family="sans-serif">trek</text></g><g class="relationship" transform="translate(28.65434557091479 150.69596746147212) rotate(383.4336359629069)"><path class="outline" fill="#A5ABB6" stroke="none" d="M 25 0.5 L 40.54483416314495 0.5 L 40.54483416314495 -0.5 L 25 -0.5 Z M 59.88077166314495 0.5 L 75.4256058262899 0.5 L 75.4256058262899 3.5 L 82.4256058262899 0 L 75.4256058262899 -3.5 L 75.4256058262899 -0.5 L 59.88077166314495 -0.5 Z"/><text text-anchor="middle" pointer-events="none" font-size="8px" fill="#000000" x="50.21280291314495" y="3" font-family="sans-serif">trek</text></g><g class="relationship" transform="translate(134.1723285690021 8.866621054666762) rotate(520.8771661027272)"><path class="outline" fill="#A5ABB6" stroke="none" d="M 25 0.5 L 39.213158488835724 0.5 L 39.213158488835724 -0.5 L 25 -0.5 Z M 61.224877238835724 0.5 L 75.43803572767145 0.5 L 75.43803572767145 3.5 L 82.43803572767145 0 L 75.43803572767145 -3.5 L 75.43803572767145 -0.5 L 61.224877238835724 -0.5 Z"/><text text-anchor="middle" pointer-events="none" font-size="8px" fill="#000000" x="50.219017863835724" y="3" transform="rotate(180 50.219017863835724 0)" font-family="sans-serif">road</text></g><g class="relationship" transform="translate(134.1723285690021 8.866621054666762) rotate(520.8771661027272)"><path class="outline" fill="#A5ABB6" stroke="none" d="M 21.40063509461097,-12.933012701892217 L 21.90063509461097,-12.06698729810778 A 59.922996971315946 59.922996971315946 0 0 1 23.463168755085707,-12.9382785859722 L 22.989244447882292,-13.81884417185536 A 60.922996971315946 60.922996971315946 0 0 0 21.40063509461097,-12.933012701892217 Z M 77.37470615295088,-15.495925738551314 L 76.95593862933917,-14.587832262543408 A 59.922996971315946 59.922996971315946 0 0 1 78.56918830807359,-13.814472435239008 L 77.23211959934785,-11.128909688225548 L 85.05834616922596,-11.142239239381185 L 80.35194658637458,-17.395222764590287 L 79.01487787764884,-14.709660017576827 A 60.922996971315946 60.922996971315946 0 0 0 77.37470615295088,-15.495925738551314"/><text text-anchor="middle" pointer-events="none" font-size="8px" fill="#000000" x="49.99975813434824" y="-17.56643845862949" transform="rotate(180 49.99975813434824 -20.56643845862949)" font-family="sans-serif">PublicTrans…</text></g></g><g class="layer nodes"><g class="node" transform="translate(134.1723285690021,8.866621054666762)"><circle class="outline" cx="0" cy="0" r="25" fill="#F16667" stroke="#eb2728" stroke-width="2px"/><text text-anchor="middle" pointer-events="none" font-family="sans-serif" dy="1.5625" font-size="25" fill="#FFFFFF"/><text text-anchor="middle" pointer-events="none" x="0" y="5" font-size="10px" fill="#FFFFFF" font-family="sans-serif"> Darjeeling</text></g><g class="node" transform="translate(127.21962907851191,193.41769114173124)"><circle class="outline" cx="0" cy="0" r="25" fill="#8DCC93" stroke="#5db665" stroke-width="2px"/><text text-anchor="middle" pointer-events="none" font-family="sans-serif" dy="1.5625" font-size="25" fill="#2A2C34"/><text text-anchor="middle" pointer-events="none" x="0" y="5" font-size="10px" fill="#2A2C34" font-family="sans-serif"> Sandak…</text></g><g class="node" transform="translate(32.66289210968899,44.06272638939209)"><circle class="outline" cx="0" cy="0" r="25" fill="#F16667" stroke="#eb2728" stroke-width="2px"/><text text-anchor="middle" pointer-events="none" font-family="sans-serif" dy="1.5625" font-size="25" fill="#FFFFFF"/><text text-anchor="middle" pointer-events="none" x="0" y="5" font-size="10px" fill="#FFFFFF" font-family="sans-serif"> Rimbik</text></g><g class="node" transform="translate(28.65434557091479,150.69596746147212)"><circle class="outline" cx="0" cy="0" r="25" fill="#D9C8AE" stroke="#c0a378" stroke-width="2px"/><text text-anchor="middle" pointer-events="none" font-family="sans-serif" dy="1.5625" font-size="25" fill="#2A2C34"/><text text-anchor="middle" pointer-events="none" x="0" y="5" font-size="10px" fill="#2A2C34" font-family="sans-serif"> BhikeBh…</text></g></g></svg>