<svg xmlns="http://www.w3.org/2000/svg" width="271.49945068359375" height="314.7906188964844" viewBox="-6.801660537719727 -32.41896438598633 271.49945068359375 314.7906188964844"><title>Neo4j Graph Visualization</title><desc>Created using Neo4j (http://www.neo4j.com/)</desc><g class="layer relationships"><g class="relationship" transform="translate(127.17603294344589 -3.4189635357177552) rotate(499.38106875265726)"><path class="outline" fill="#A5ABB6" stroke="none" d="M 25 0.5 L 26.538464063203826 0.5 L 26.538464063203826 -0.5 L 25 -0.5 Z M 91.21033906320383 0.5 L 92.74880312640765 0.5 L 92.74880312640765 3.5 L 99.74880312640765 0 L 92.74880312640765 -3.5 L 92.74880312640765 -0.5 L 91.21033906320383 -0.5 Z"/><text text-anchor="middle" pointer-events="none" font-size="8px" fill="#000000" x="58.874401563203826" y="3" transform="rotate(180 58.874401563203826 0)" font-family="sans-serif">MINPRICEFLI…</text></g><g class="relationship" transform="translate(32.4846752616126 77.79563282381805) rotate(415.25815146683533)"><path class="outline" fill="#A5ABB6" stroke="none" d="M 25 0.5 L 25.683823604550142 0.5 L 25.683823604550142 -0.5 L 25 -0.5 Z M 96.57835485455014 0.5 L 97.26217845910028 0.5 L 97.26217845910028 3.5 L 104.26217845910028 0 L 97.26217845910028 -3.5 L 97.26217845910028 -0.5 L 96.57835485455014 -0.5 Z"/><text text-anchor="middle" pointer-events="none" font-size="8px" fill="#000000" x="61.13108922955014" y="3" font-family="sans-serif">MINPRICEFLIG…</text></g><g class="relationship" transform="translate(106.14858757661665 184.01398718143219) rotate(500.43730398110927)"><path class="outline" fill="#A5ABB6" stroke="none" d="M 24.018736134675446,6.953439040707552 L 24.277555179777966,5.987513214418485 A 109.48934162767411 109.48934162767411 0 0 0 24.7737133301531,6.119212545031587 L 24.519425850799347,7.086341222015122 A 110.48934162767411 110.48934162767411 0 0 1 24.018736134675446,6.953439040707552 Z M 77.35077977122592,7.913932447572023 L 77.12690932926218,6.9393135347579005 A 109.48934162767411 109.48934162767411 0 0 0 77.6269491079921,6.823219419681937 L 76.9416367285199,3.9025436515518743 L 84.55607796354096,5.710936495601779 L 78.54069894728839,10.717453777188688 L 77.85538656781618,7.796778009058624 A 110.48934162767411 110.48934162767411 0 0 1 77.35077977122592,7.913932447572023"/><text text-anchor="middle" pointer-events="none" font-size="8px" fill="#000000" x="50.89273519195574" y="13.204779668161578" transform="rotate(180 50.89273519195574 10.204779668161578)" font-family="sans-serif">MINPRICE…</text></g><g class="relationship" transform="translate(127.17603294344589 -3.4189635357177552) rotate(471.353317050691)"><path class="outline" fill="#A5ABB6" stroke="none" d="M 25 0.5 L 25.299933627447118 0.5 L 25.299933627447118 -0.5 L 25 -0.5 Z M 65.07727737744712 0.5 L 65.37721100489424 0.5 L 65.37721100489424 3.5 L 72.37721100489424 0 L 65.37721100489424 -3.5 L 65.37721100489424 -0.5 L 65.07727737744712 -0.5 Z"/><text text-anchor="middle" pointer-events="none" font-size="8px" fill="#000000" x="45.18860550244712" y="3" transform="rotate(180 45.18860550244712 0)" font-family="sans-serif">MINPR…</text></g><g class="relationship" transform="translate(91.71923121223229 87.27357438270806) rotate(441.5165665888364)"><path class="outline" fill="#A5ABB6" stroke="none" d="M 25 0.5 L 25.516628945969153 0.5 L 25.516628945969153 -0.5 L 25 -0.5 Z M 65.29397269596916 0.5 L 65.8106016419383 0.5 L 65.8106016419383 3.5 L 72.8106016419383 0 L 65.8106016419383 -3.5 L 65.8106016419383 -0.5 L 65.29397269596916 -0.5 Z"/><text text-anchor="middle" pointer-events="none" font-size="8px" fill="#000000" x="45.40530082096915" y="3" font-family="sans-serif">MINPR…</text></g><g class="relationship" transform="translate(127.17603294344589 -3.4189635357177552) rotate(420.2140861001566)"><path class="outline" fill="#A5ABB6" stroke="none" d="M 24.018736134675446,6.953439040707552 L 24.277555179777966,5.987513214418485 A 136.8344067625714 136.8344067625714 0 0 0 25.911918938146798,6.414644682012607 L 25.665043992463694,7.3836920292531545 A 137.8344067625714 137.8344067625714 0 0 1 24.018736134675446,6.953439040707552 Z M 89.96800248102141,8.283994572436399 L 89.74835415433085,7.3084154559204535 A 136.8344067625714 136.8344067625714 0 0 0 91.3940354296964,6.927207736704944 L 90.69901002261149,4.008828103499825 L 98.3194254750225,5.791878392374322 L 92.3207359724763,10.818380580978436 L 91.62571056539139,7.900000947773317 A 137.8344067625714 137.8344067625714 0 0 1 89.96800248102141,8.283994572436399"/><text text-anchor="middle" pointer-events="none" font-size="8px" fill="#000000" x="57.77028186833552" y="14.136573939167533" font-family="sans-serif">MINPRICEFLI…</text></g><g class="relationship" transform="translate(127.17603294344589 -3.4189635357177552) rotate(365.45249985969383)"><path class="outline" fill="#A5ABB6" stroke="none" d="M 25 0.5 L 27.118835686154036 0.5 L 27.118835686154036 -0.5 L 25 -0.5 Z M 74.89617943615403 0.5 L 77.01501512230807 0.5 L 77.01501512230807 3.5 L 84.01501512230807 0 L 77.01501512230807 -3.5 L 77.01501512230807 -0.5 L 74.89617943615403 -0.5 Z"/><text text-anchor="middle" pointer-events="none" font-size="8px" fill="#000000" x="51.007507561154036" y="3" font-family="sans-serif">MINPRIC…</text></g><g class="relationship" transform="translate(22.198340111469275 253.3716563661059) rotate(320.43730398110927)"><path class="outline" fill="#A5ABB6" stroke="none" d="M 24.018736134675446,6.953439040707552 L 24.277555179777966,5.987513214418485 A 109.48934162767411 109.48934162767411 0 0 0 24.7737133301531,6.119212545031587 L 24.519425850799347,7.086341222015122 A 110.48934162767411 110.48934162767411 0 0 1 24.018736134675446,6.953439040707552 Z M 77.35077977122592,7.913932447572023 L 77.12690932926218,6.9393135347579005 A 109.48934162767411 109.48934162767411 0 0 0 77.6269491079921,6.823219419681937 L 76.9416367285199,3.9025436515518743 L 84.55607796354096,5.710936495601779 L 78.54069894728839,10.717453777188688 L 77.85538656781618,7.796778009058624 A 110.48934162767411 110.48934162767411 0 0 1 77.35077977122592,7.913932447572023"/><text text-anchor="middle" pointer-events="none" font-size="8px" fill="#000000" x="50.89273519195574" y="13.204779668161578" font-family="sans-serif">MINPRICE…</text></g><g class="relationship" transform="translate(188.09838405950313 103.01812673750672) rotate(296.35484535854187)"><path class="outline" fill="#A5ABB6" stroke="none" d="M 24.018736134675446,-6.953439040707552 L 24.277555179777966,-5.987513214418485 A 106.14878530916899 106.14878530916899 0 0 1 26.53068090726566,-6.564854880997075 L 26.29308797154277,-7.536219692432297 A 107.14878530916899 107.14878530916899 0 0 0 24.018736134675446,-6.953439040707552 Z M 73.88802245397882,-8.292720414907905 L 73.681420578299,-7.314295320705199 A 106.14878530916899 106.14878530916899 0 0 1 75.95175669914238,-6.8088521070515995 L 75.26778634009308,-3.887861770206579 L 82.88139587828897,-5.699752992077424 L 76.86371717787476,-10.703505889511627 L 76.17974681882546,-7.782515552666606 A 107.14878530916899 107.14878530916899 0 0 0 73.88802245397882,-8.292720414907905"/><text text-anchor="middle" pointer-events="none" font-size="8px" fill="#000000" x="50.055960597073415" y="-7.090976193277896" font-family="sans-serif">MINPRIC…</text></g><g class="relationship" transform="translate(188.09838405950313 103.01812673750672) rotate(240.21408610015658)"><path class="outline" fill="#A5ABB6" stroke="none" d="M 24.018736134675446,6.953439040707552 L 24.277555179777966,5.987513214418485 A 136.8344067625714 136.8344067625714 0 0 0 25.911918938146798,6.414644682012607 L 25.665043992463694,7.3836920292531545 A 137.8344067625714 137.8344067625714 0 0 1 24.018736134675446,6.953439040707552 Z M 89.96800248102141,8.283994572436399 L 89.74835415433085,7.3084154559204535 A 136.8344067625714 136.8344067625714 0 0 0 91.3940354296964,6.927207736704944 L 90.69901002261149,4.008828103499825 L 98.3194254750225,5.791878392374322 L 92.3207359724763,10.818380580978436 L 91.62571056539139,7.900000947773317 A 137.8344067625714 137.8344067625714 0 0 1 89.96800248102141,8.283994572436399"/><text text-anchor="middle" pointer-events="none" font-size="8px" fill="#000000" x="57.77028186833552" y="14.136573939167533" transform="rotate(180 57.77028186833552 11.136573939167533)" font-family="sans-serif">MINPRICEFLI…</text></g><g class="relationship" transform="translate(235.69778953446573 6.939697985757901) rotate(476.35484535854187)"><path class="outline" fill="#A5ABB6" stroke="none" d="M 24.018736134675446,-6.953439040707552 L 24.277555179777966,-5.987513214418485 A 106.14878530916899 106.14878530916899 0 0 1 26.53068090726566,-6.564854880997075 L 26.29308797154277,-7.536219692432297 A 107.14878530916899 107.14878530916899 0 0 0 24.018736134675446,-6.953439040707552 Z M 73.88802245397882,-8.292720414907905 L 73.681420578299,-7.314295320705199 A 106.14878530916899 106.14878530916899 0 0 1 75.95175669914238,-6.8088521070515995 L 75.26778634009308,-3.887861770206579 L 82.88139587828897,-5.699752992077424 L 76.86371717787476,-10.703505889511627 L 76.17974681882546,-7.782515552666606 A 107.14878530916899 107.14878530916899 0 0 0 73.88802245397882,-8.292720414907905"/><text text-anchor="middle" pointer-events="none" font-size="8px" fill="#000000" x="50.055960597073415" y="-7.090976193277896" transform="rotate(180 50.055960597073415 -10.090976193277896)" font-family="sans-serif">MINPRIC…</text></g><g class="relationship" transform="translate(106.14858757661665 184.01398718143219) rotate(315.33542400323034)"><path class="outline" fill="#A5ABB6" stroke="none" d="M 25 0.5 L 25.11097671589669 0.5 L 25.11097671589669 -0.5 L 25 -0.5 Z M 83.1109767158967 0.5 L 83.22195343179338 0.5 L 83.22195343179338 3.5 L 90.22195343179338 0 L 83.22195343179338 -3.5 L 83.22195343179338 -0.5 L 83.1109767158967 -0.5 Z"/><text text-anchor="middle" pointer-events="none" font-size="8px" fill="#000000" x="54.11097671589669" y="3" font-family="sans-serif">MINPRICEF…</text></g></g><g class="layer nodes"><g class="node" transform="translate(127.17603294344589,-3.4189635357177552)"><circle class="outline" cx="0" cy="0" r="25" fill="#FFC454" stroke="#d7a013" stroke-width="2px"/><text text-anchor="middle" pointer-events="none" font-family="sans-serif" dy="1.5625" font-size="25" fill="#2A2C34"/><text text-anchor="middle" pointer-events="none" x="0" y="5" font-size="10px" fill="#2A2C34" font-family="sans-serif"> LAX</text></g><g class="node" transform="translate(22.198340111469275,253.3716563661059)"><circle class="outline" cx="0" cy="0" r="25" fill="#FFC454" stroke="#d7a013" stroke-width="2px"/><text text-anchor="middle" pointer-events="none" font-family="sans-serif" dy="1.5625" font-size="25" fill="#2A2C34"/><text text-anchor="middle" pointer-events="none" x="0" y="5" font-size="10px" fill="#2A2C34" font-family="sans-serif"> SEA</text></g><g class="node" transform="translate(188.09838405950313,103.01812673750672)"><circle class="outline" cx="0" cy="0" r="25" fill="#FFC454" stroke="#d7a013" stroke-width="2px"/><text text-anchor="middle" pointer-events="none" font-family="sans-serif" dy="1.5625" font-size="25" fill="#2A2C34"/><text text-anchor="middle" pointer-events="none" x="0" y="5" font-size="10px" fill="#2A2C34" font-family="sans-serif"> EWR</text></g><g class="node" transform="translate(235.69778953446573,6.939697985757901)"><circle class="outline" cx="0" cy="0" r="25" fill="#FFC454" stroke="#d7a013" stroke-width="2px"/><text text-anchor="middle" pointer-events="none" font-family="sans-serif" dy="1.5625" font-size="25" fill="#2A2C34"/><text text-anchor="middle" pointer-events="none" x="0" y="5" font-size="10px" fill="#2A2C34" font-family="sans-serif"> IAH</text></g><g class="node" transform="translate(32.4846752616126,77.79563282381805)"><circle class="outline" cx="0" cy="0" r="25" fill="#FFC454" stroke="#d7a013" stroke-width="2px"/><text text-anchor="middle" pointer-events="none" font-family="sans-serif" dy="1.5625" font-size="25" fill="#2A2C34"/><text text-anchor="middle" pointer-events="none" x="0" y="5" font-size="10px" fill="#2A2C34" font-family="sans-serif"> LAS</text></g><g class="node" transform="translate(106.14858757661665,184.01398718143219)"><circle class="outline" cx="0" cy="0" r="25" fill="#FFC454" stroke="#d7a013" stroke-width="2px"/><text text-anchor="middle" pointer-events="none" font-family="sans-serif" dy="1.5625" font-size="25" fill="#2A2C34"/><text text-anchor="middle" pointer-events="none" x="0" y="5" font-size="10px" fill="#2A2C34" font-family="sans-serif"> DEN</text></g><g class="node" transform="translate(91.71923121223229,87.27357438270806)"><circle class="outline" cx="0" cy="0" r="25" fill="#FFC454" stroke="#d7a013" stroke-width="2px"/><text text-anchor="middle" pointer-events="none" font-family="sans-serif" dy="1.5625" font-size="25" fill="#2A2C34"/><text text-anchor="middle" pointer-events="none" x="0" y="5" font-size="10px" fill="#2A2C34" font-family="sans-serif"> SMF</text></g></g></svg>