<svg xmlns="http://www.w3.org/2000/svg" width="403.3591613769531" height="405.5928955078125" viewBox="-102.13219451904297 -114.54804992675781 403.3591613769531 405.5928955078125"><title>Neo4j Graph Visualization</title><desc>Created using Neo4j (http://www.neo4j.com/)</desc><g class="layer relationships"><g class="relationship" transform="translate(112.66326099872703 -85.54805349486895) rotate(452.8684561337919)"><path class="outline" fill="#A5ABB6" stroke="none" d="M 21.40063509461097,12.933012701892217 L 21.90063509461097,12.06698729810778 A 64.31389956238 64.31389956238 0 0 0 22.891489699656447,12.627424246053216 L 22.406896238706135,13.502163737332872 A 65.31389956238 65.31389956238 0 0 1 21.40063509461097,12.933012701892217 Z M 82.25896700825732,15.281209034054633 L 81.82718476402734,14.379231155408092 A 64.31389956238 64.31389956238 0 0 0 82.84957752736739,13.878636051125094 L 81.50654004180923,11.196053282153072 L 89.3327769025618,11.191979046318043 L 84.64029417477828,17.455413076421124 L 83.29725668922012,14.7728303074491 A 65.31389956238 65.31389956238 0 0 1 82.25896700825732,15.281209034054633"/><text text-anchor="middle" pointer-events="none" font-size="8px" fill="#000000" x="52.131904484937" y="24.15480284200345" transform="rotate(180 52.131904484937 21.15480284200345)" font-family="sans-serif">PublicTransport</text></g><g class="relationship" transform="translate(107.07406635973436 25.999641854808026) rotate(414.36443675044427)"><path class="outline" fill="#A5ABB6" stroke="none" d="M 25 0.5 L 49.80478215396676 0.5 L 49.80478215396676 -0.5 L 25 -0.5 Z M 69.14071965396676 0.5 L 93.94550180793352 0.5 L 93.94550180793352 3.5 L 100.94550180793352 0 L 93.94550180793352 -3.5 L 93.94550180793352 -0.5 L 69.14071965396676 -0.5 Z"/><text text-anchor="middle" pointer-events="none" font-size="8px" fill="#000000" x="59.47275090396676" y="3" font-family="sans-serif">trek</text></g><g class="relationship" transform="translate(180.4533850348919 128.36049871143004) rotate(478.2802320436906)"><path class="outline" fill="#A5ABB6" stroke="none" d="M 25 0.5 L 47.49655996761413 0.5 L 47.49655996761413 -0.5 L 25 -0.5 Z M 66.83249746761413 0.5 L 89.32905743522826 0.5 L 89.32905743522826 3.5 L 96.32905743522826 0 L 89.32905743522826 -3.5 L 89.32905743522826 -0.5 L 66.83249746761413 -0.5 Z"/><text text-anchor="middle" pointer-events="none" font-size="8px" fill="#000000" x="57.16452871761413" y="3" transform="rotate(180 57.16452871761413 0)" font-family="sans-serif">trek</text></g><g class="relationship" transform="translate(112.66326099872703 -85.54805349486895) rotate(452.8684561337919)"><path class="outline" fill="#A5ABB6" stroke="none" d="M 25 0.5 L 41.33795728033099 0.5 L 41.33795728033099 -0.5 L 25 -0.5 Z M 63.34967603033099 0.5 L 79.68763331066198 0.5 L 79.68763331066198 3.5 L 86.68763331066198 0 L 79.68763331066198 -3.5 L 79.68763331066198 -0.5 L 63.34967603033099 -0.5 Z"/><text text-anchor="middle" pointer-events="none" font-size="8px" fill="#000000" x="52.34381665533099" y="3" transform="rotate(180 52.34381665533099 0)" font-family="sans-serif">road</text></g><g class="relationship" transform="translate(112.66326099872703 -85.54805349486895) rotate(452.8684561337919)"><path class="outline" fill="#A5ABB6" stroke="none" d="M 21.40063509461097,-12.933012701892217 L 21.90063509461097,-12.06698729810778 A 64.31389956238 64.31389956238 0 0 1 42.614348193220735,-19.65719307423585 L 42.43642029955475,-20.64123660206151 A 65.31389956238 65.31389956238 0 0 0 21.40063509461097,-12.933012701892217 Z M 61.84077508985584,-21.218012404164057 L 61.72160918081956,-20.22513804850592 A 64.31389956238 64.31389956238 0 0 1 82.84957752736739,-13.878636051125094 L 81.50654004180923,-11.196053282153072 L 89.3327769025618,-11.191979046318043 L 84.64029417477828,-17.455413076421124 L 83.29725668922012,-14.7728303074491 A 65.31389956238 65.31389956238 0 0 0 61.84077508985584,-21.218012404164057"/><text text-anchor="middle" pointer-events="none" font-size="8px" fill="#000000" x="52.131904484937" y="-18.15480284200345" transform="rotate(180 52.131904484937 -21.15480284200345)" font-family="sans-serif">trek</text></g><g class="relationship" transform="translate(112.66326099872703 -85.54805349486895) rotate(389.8607112461341)"><path class="outline" fill="#A5ABB6" stroke="none" d="M 24.018736134675446,-6.953439040707552 L 24.277555179777966,-5.987513214418485 A 107.78495838482522 107.78495838482522 0 0 1 40.871013558222025,-9.065870847836337 L 40.76614417944678,-10.060356852461496 A 108.78495838482522 108.78495838482522 0 0 0 24.018736134675446,-6.953439040707552 Z M 60.16315171534727,-10.366465062913377 L 60.08971512403348,-9.369165174687055 A 107.78495838482522 107.78495838482522 0 0 1 76.77204668680442,-6.815939703610524 L 76.08741428901762,-3.8951044669186805 L 83.70143430538317,-5.705269981556636 L 77.68488988385347,-10.710386685866315 L 77.00025748606667,-7.789551449174472 A 108.78495838482522 108.78495838482522 0 0 0 60.16315171534727,-10.366465062913377"/><text text-anchor="middle" pointer-events="none" font-size="8px" fill="#000000" x="50.465700488101255" y="-7.146715131588564" font-family="sans-serif">trek</text></g><g class="relationship" transform="translate(206.3611927275347 -31.75481444967739) rotate(414.5827639044102)"><path class="outline" fill="#A5ABB6" stroke="none" d="M 21.40063509461097,-12.933012701892217 L 21.90063509461097,-12.06698729810778 A 66.34257385730056 66.34257385730056 0 0 1 43.59527923752783,-19.954991194751145 L 43.422288620515914,-20.93991466712137 A 67.34257385730056 67.34257385730056 0 0 0 21.40063509461097,-12.933012701892217 Z M 62.82672139772963,-21.50721677486935 L 62.711566913273764,-20.513869179759908 A 66.34257385730056 66.34257385730056 0 0 1 84.82998547060194,-13.906770687675962 L 83.48433086072735,-11.22549978175779 L 91.31056001939011,-11.213788415621607 L 86.6241916171014,-17.481798562233525 L 85.27853700722682,-14.800527656315353 A 67.34257385730056 67.34257385730056 0 0 0 62.82672139772963,-21.50721677486935"/><text text-anchor="middle" pointer-events="none" font-size="8px" fill="#000000" x="53.11856743271909" y="-18.42665910036274" font-family="sans-serif">trek</text></g><g class="relationship" transform="translate(272.2269620770269 60.868304774458935) rotate(503.6684645427552)"><path class="outline" fill="#A5ABB6" stroke="none" d="M 21.40063509461097,12.933012701892217 L 21.90063509461097,12.06698729810778 A 66.61545439294495 66.61545439294495 0 0 0 43.72732900258727,19.994941779905346 L 43.554981108346794,20.979977923075168 A 67.61545439294495 67.61545439294495 0 0 1 21.40063509461097,12.933012701892217 Z M 62.95941443506235,21.54602837195158 L 62.84478010754702,20.552620615310275 A 66.61545439294495 66.61545439294495 0 0 0 85.09650088019838,13.910486028153946 L 83.75050066771854,11.229388598368107 L 91.57672825177865,11.216668437331967 L 86.8911678301715,17.48528260120173 L 85.54516761769166,14.804185171415893 A 67.61545439294495 67.61545439294495 0 0 1 62.95941443506235,21.54602837195158"/><text text-anchor="middle" pointer-events="none" font-size="8px" fill="#000000" x="53.251356977510945" y="24.463227883189077" transform="rotate(180 53.251356977510945 21.463227883189077)" font-family="sans-serif">trek</text></g><g class="relationship" transform="translate(112.66326099872703 -85.54805349486895) rotate(389.8607112461341)"><path class="outline" fill="#A5ABB6" stroke="none" d="M 24.018736134675446,6.953439040707552 L 24.277555179777966,5.987513214418485 A 107.78495838482522 107.78495838482522 0 0 0 39.54754005813572,8.918037112952135 L 39.43039184639604,9.911151555746216 A 108.78495838482522 108.78495838482522 0 0 1 24.018736134675446,6.953439040707552 Z M 61.502946992204585,10.25948313953711 L 61.41719440337837,9.263166677006453 A 107.78495838482522 107.78495838482522 0 0 0 76.77204668680442,6.815939703610524 L 76.08741428901762,3.8951044669186805 L 83.70143430538317,5.705269981556636 L 77.68488988385347,10.710386685866315 L 77.00025748606667,7.789551449174472 A 108.78495838482522 108.78495838482522 0 0 1 61.502946992204585,10.25948313953711"/><text text-anchor="middle" pointer-events="none" font-size="8px" fill="#000000" x="50.46570048810127" y="13.146715131588564" font-family="sans-serif">road</text></g><g class="relationship" transform="translate(107.07406635973436 25.999641854808026) rotate(329.8138091494872)"><path class="outline" fill="#A5ABB6" stroke="none" d="M 25 0.5 L 44.26353542106074 0.5 L 44.26353542106074 -0.5 L 25 -0.5 Z M 63.59947292106074 0.5 L 82.86300834212147 0.5 L 82.86300834212147 3.5 L 89.86300834212147 0 L 82.86300834212147 -3.5 L 82.86300834212147 -0.5 L 63.59947292106074 -0.5 Z"/><text text-anchor="middle" pointer-events="none" font-size="8px" fill="#000000" x="53.93150417106074" y="3" font-family="sans-serif">trek</text></g><g class="relationship" transform="translate(206.3611927275347 -31.75481444967739) rotate(414.5827639044102)"><path class="outline" fill="#A5ABB6" stroke="none" d="M 25 0.5 L 42.32138274268744 0.5 L 42.32138274268744 -0.5 L 25 -0.5 Z M 64.33310149268743 0.5 L 81.65448423537488 0.5 L 81.65448423537488 3.5 L 88.65448423537488 0 L 81.65448423537488 -3.5 L 81.65448423537488 -0.5 L 64.33310149268743 -0.5 Z"/><text text-anchor="middle" pointer-events="none" font-size="8px" fill="#000000" x="53.32724211768744" y="3" font-family="sans-serif">road</text></g><g class="relationship" transform="translate(206.3611927275347 -31.75481444967739) rotate(414.5827639044102)"><path class="outline" fill="#A5ABB6" stroke="none" d="M 21.40063509461097,12.933012701892217 L 21.90063509461097,12.06698729810778 A 66.34257385730056 66.34257385730056 0 0 0 30.661590757945056,16.301147585033384 L 30.293647070414607,17.230995660154527 A 67.34257385730056 67.34257385730056 0 0 1 21.40063509461097,12.933012701892217 Z M 76.14961979118593,18.571626962084395 L 75.83662762945792,17.621871253127182 A 66.34257385730056 66.34257385730056 0 0 0 84.82998547060194,13.906770687675962 L 83.48433086072735,11.22549978175779 L 91.31056001939011,11.213788415621607 L 86.6241916171014,17.481798562233525 L 85.27853700722682,14.800527656315353 A 67.34257385730056 67.34257385730056 0 0 1 76.14961979118593,18.571626962084395"/><text text-anchor="middle" pointer-events="none" font-size="8px" fill="#000000" x="53.11856743271911" y="24.42665910036274" font-family="sans-serif">twowheeler</text></g><g class="relationship" transform="translate(272.2269620770269 60.868304774458935) rotate(503.6684645427552)"><path class="outline" fill="#A5ABB6" stroke="none" d="M 25 0.5 L 42.45374404166365 0.5 L 42.45374404166365 -0.5 L 25 -0.5 Z M 64.46546279166364 0.5 L 81.9192068333273 0.5 L 81.9192068333273 3.5 L 88.9192068333273 0 L 81.9192068333273 -3.5 L 81.9192068333273 -0.5 L 64.46546279166364 -0.5 Z"/><text text-anchor="middle" pointer-events="none" font-size="8px" fill="#000000" x="53.45960341666365" y="3" transform="rotate(180 53.45960341666365 0)" font-family="sans-serif">road</text></g><g class="relationship" transform="translate(272.2269620770269 60.868304774458935) rotate(503.6684645427552)"><path class="outline" fill="#A5ABB6" stroke="none" d="M 21.40063509461097,-12.933012701892217 L 21.90063509461097,-12.06698729810778 A 66.61545439294495 66.61545439294495 0 0 1 30.78917954873648,-16.35471321633618 L 30.422610214865315,-17.285103953319975 A 67.61545439294495 67.61545439294495 0 0 0 21.40063509461097,-12.933012701892217 Z M 76.28483860003239,-18.622959819904594 L 75.9731276679951,-17.67278283910131 A 66.61545439294495 66.61545439294495 0 0 1 85.09650088019838,-13.910486028153946 L 83.75050066771854,-11.229388598368107 L 91.57672825177865,-11.216668437331967 L 86.8911678301715,-17.48528260120173 L 85.54516761769166,-14.804185171415893 A 67.61545439294495 67.61545439294495 0 0 0 76.28483860003239,-18.622959819904594"/><text text-anchor="middle" pointer-events="none" font-size="8px" fill="#000000" x="53.25135697751093" y="-18.463227883189077" transform="rotate(180 53.25135697751093 -21.463227883189077)" font-family="sans-serif">twowheeler</text></g><g class="relationship" transform="translate(107.07406635973436 25.999641854808026) rotate(521.6907503670602)"><path class="outline" fill="#A5ABB6" stroke="none" d="M 24.018736134675446,-6.953439040707552 L 24.277555179777966,-5.987513214418485 A 138.41618485020066 138.41618485020066 0 0 1 48.55660032183085,-10.221559504060195 L 48.47318739103735,-11.218074573176779 A 139.41618485020066 139.41618485020066 0 0 0 24.018736134675446,-6.953439040707552 Z M 67.8611820925611,-11.487861677886684 L 67.80552942833522,-10.489411488360673 A 138.41618485020066 138.41618485020066 0 0 1 92.19298607780665,-6.932567499257221 L 91.4974600565593,-4.014307134970334 L 99.11818126468395,-5.796050177061227 L 93.12035410613646,-10.823581318306404 L 92.42482808488911,-7.905320954019517 A 139.41618485020066 139.41618485020066 0 0 0 67.8611820925611,-11.487861677886684"/><text text-anchor="middle" pointer-events="none" font-size="8px" fill="#000000" x="58.169445748767885" y="-8.190483001657185" transform="rotate(180 58.169445748767885 -11.190483001657185)" font-family="sans-serif">trek</text></g><g class="relationship" transform="translate(-10.11392453378217 64.77685310901843) rotate(428.5218453931282)"><path class="outline" fill="#A5ABB6" stroke="none" d="M 24.018736134675446,-6.953439040707552 L 24.277555179777966,-5.987513214418485 A 112.58554576326388 112.58554576326388 0 0 1 42.07076284481472,-9.250599779110402 L 41.969985469665566,-10.245508780305016 A 113.58554576326388 113.58554576326388 0 0 0 24.018736134675446,-6.953439040707552 Z M 61.3654487237898,-10.545313186294578 L 61.295469660487285,-9.547764725968321 A 112.58554576326388 112.58554576326388 0 0 1 79.18103049441646,-6.83618094603184 L 78.49450741474816,-3.915789523451171 L 86.10969766038274,-5.721025663902566 L 80.09639460064086,-10.730036176139398 L 79.40987152097256,-7.809644753558729 A 113.58554576326388 113.58554576326388 0 0 0 61.3654487237898,-10.545313186294578"/><text text-anchor="middle" pointer-events="none" font-size="8px" fill="#000000" x="51.66903323408297" y="-7.310265157548656" font-family="sans-serif">trek</text></g><g class="relationship" transform="translate(30.325594174590226 167.55345030227036) rotate(396.1392357329528)"><path class="outline" fill="#A5ABB6" stroke="none" d="M 24.018736134675446,6.953439040707552 L 24.277555179777966,5.987513214418485 A 121.09600124211813 121.09600124211813 0 0 0 44.202381699224304,9.574345598262369 L 44.10810009809244,10.56989116712802 A 122.09600124211813 122.09600124211813 0 0 1 24.018736134675446,6.953439040707552 Z M 63.50094002297705,10.859116183153432 L 63.436388904547286,9.861201781458831 A 121.09600124211813 121.09600124211813 0 0 0 83.45931804719221,6.870150640398373 L 82.76962199179894,3.950506937619732 L 90.38676936290791,5.747467128277199 L 84.37891278771656,10.763008910769894 L 83.68921673232329,7.843365207991253 A 122.09600124211813 122.09600124211813 0 0 1 63.50094002297705,10.859116183153432"/><text text-anchor="middle" pointer-events="none" font-size="8px" fill="#000000" x="53.806224212660084" y="13.60023849217525" font-family="sans-serif">trek</text></g><g class="relationship" transform="translate(107.07406635973436 25.999641854808026) rotate(521.6907503670602)"><path class="outline" fill="#A5ABB6" stroke="none" d="M 24.018736134675446,6.953439040707552 L 24.277555179777966,5.987513214418485 A 138.41618485020066 138.41618485020066 0 0 0 35.1644607736571,8.438927655485031 L 34.9842951432955,9.422563942756085 A 139.41618485020066 139.41618485020066 0 0 1 24.018736134675446,6.953439040707552 Z M 81.39481156774329,10.068373839395889 L 81.24208531417969,9.080105307329632 A 138.41618485020066 138.41618485020066 0 0 0 92.19298607780665,6.932567499257221 L 91.4974600565593,4.014307134970334 L 99.11818126468395,5.796050177061227 L 93.12035410613646,10.823581318306404 L 92.42482808488911,7.905320954019517 A 139.41618485020066 139.41618485020066 0 0 1 81.39481156774329,10.068373839395889"/><text text-anchor="middle" pointer-events="none" font-size="8px" fill="#000000" x="58.169445748767885" y="14.190483001657185" transform="rotate(180 58.169445748767885 11.190483001657185)" font-family="sans-serif">twowheeler</text></g><g class="relationship" transform="translate(-10.11392453378217 64.77685310901843) rotate(428.5218453931282)"><path class="outline" fill="#A5ABB6" stroke="none" d="M 24.018736134675446,6.953439040707552 L 24.277555179777966,5.987513214418485 A 112.58554576326388 112.58554576326388 0 0 0 28.7487542318587,7.0880822752889685 L 28.52964897969264,8.063783504392035 A 113.58554576326388 113.58554576326388 0 0 1 24.018736134675446,6.953439040707552 Z M 74.8667957821296,8.780037640234923 L 74.67795170860404,7.7980305547745985 A 112.58554576326388 112.58554576326388 0 0 0 79.18103049441646,6.83618094603184 L 78.49450741474816,3.915789523451171 L 86.10969766038274,5.721025663902566 L 80.09639460064086,10.730036176139398 L 79.40987152097256,7.809644753558729 A 113.58554576326388 113.58554576326388 0 0 1 74.8667957821296,8.780037640234923"/><text text-anchor="middle" pointer-events="none" font-size="8px" fill="#000000" x="51.669033234082995" y="13.310265157548656" font-family="sans-serif">twowheeler</text></g><g class="relationship" transform="translate(-10.11392453378217 64.77685310901843) rotate(482.0630822717379)"><path class="outline" fill="#A5ABB6" stroke="none" d="M 24.018736134675446,-6.953439040707552 L 24.277555179777966,-5.987513214418485 A 129.03843136373223 129.03843136373223 0 0 1 46.19661171911404,-9.87284305952852 L 46.10765723534946,-10.868878751568815 A 130.03843136373223 130.03843136373223 0 0 0 24.018736134675446,-6.953439040707552 Z M 65.498192228719,-11.148863360967397 L 65.43803283291723,-10.150674577671992 A 129.03843136373223 129.03843136373223 0 0 1 87.46013043567875,-6.899821650460563 L 86.76766297414736,-3.980834015214353 L 94.38651282817514,-5.7705621794283335 L 88.38342038438728,-10.791805164122177 L 87.69095292285589,-7.8728175288759665 A 130.03843136373223 130.03843136373223 0 0 0 65.498192228719,-11.148863360967397"/><text text-anchor="middle" pointer-events="none" font-size="8px" fill="#000000" x="55.80491708231029" y="-7.8708894085268355" transform="rotate(180 55.80491708231029 -10.870889408526835)" font-family="sans-serif">trek</text></g><g class="relationship" transform="translate(-73.13218960106964 165.38051647122694) rotate(361.203211890805)"><path class="outline" fill="#A5ABB6" stroke="none" d="M 21.40063509461097,12.933012701892217 L 21.90063509461097,12.06698729810778 A 55.82353506352953 55.82353506352953 0 0 0 38.5255988197548,18.392993496861266 L 38.32341162767217,19.372340391152427 A 56.82353506352953 56.82353506352953 0 0 1 21.40063509461097,12.933012701892217 Z M 57.725444814902666,19.99225452183795 L 57.58618839272337,19.00199816670468 A 55.82353506352953 55.82353506352953 0 0 0 74.58107506487873,13.750179406540683 L 73.24998742897489,11.061647147938618 L 81.07616494093419,11.092396965865385 L 76.3558585794172,17.334889084676767 L 75.02477094351336,14.646356826074703 A 56.82353506352953 56.82353506352953 0 0 1 57.725444814902666,19.99225452183795"/><text text-anchor="middle" pointer-events="none" font-size="8px" fill="#000000" x="48.013727898536665" y="23.017195480024256" font-family="sans-serif">trek</text></g><g class="relationship" transform="translate(-10.11392453378217 64.77685310901843) rotate(482.0630822717379)"><path class="outline" fill="#A5ABB6" stroke="none" d="M 24.018736134675446,6.953439040707552 L 24.277555179777966,5.987513214418485 A 129.03843136373223 129.03843136373223 0 0 0 32.82553694107336,7.969074032516886 L 32.63296158531948,8.950356220450757 A 130.03843136373223 130.03843136373223 0 0 1 24.018736134675446,6.953439040707552 Z M 79.02266279582776,9.620188299760713 L 78.85849975721612,8.633755080148859 A 129.03843136373223 129.03843136373223 0 0 0 87.46013043567875,6.899821650460563 L 86.76766297414736,3.980834015214353 L 94.38651282817514,5.7705621794283335 L 88.38342038438728,10.791805164122177 L 87.69095292285589,7.8728175288759665 A 130.03843136373223 130.03843136373223 0 0 1 79.02266279582776,9.620188299760713"/><text text-anchor="middle" pointer-events="none" font-size="8px" fill="#000000" x="55.804917082310325" y="13.870889408526835" transform="rotate(180 55.804917082310325 10.870889408526835)" font-family="sans-serif">twowheeler</text></g><g class="relationship" transform="translate(-73.13218960106964 165.38051647122694) rotate(361.203211890805)"><path class="outline" fill="#A5ABB6" stroke="none" d="M 25 0.5 L 37.23444083964236 0.5 L 37.23444083964236 -0.5 L 25 -0.5 Z M 59.24615958964236 0.5 L 71.48060042928472 0.5 L 71.48060042928472 3.5 L 78.48060042928472 0 L 71.48060042928472 -3.5 L 71.48060042928472 -0.5 L 59.24615958964236 -0.5 Z"/><text text-anchor="middle" pointer-events="none" font-size="8px" fill="#000000" x="48.24030021464236" y="3" font-family="sans-serif">road</text></g><g class="relationship" transform="translate(-73.13218960106964 165.38051647122694) rotate(361.203211890805)"><path class="outline" fill="#A5ABB6" stroke="none" d="M 21.40063509461097,-12.933012701892217 L 21.90063509461097,-12.06698729810778 A 55.82353506352953 55.82353506352953 0 0 1 25.81186369364938,-14.123193332600572 L 25.381927844810484,-15.026052771208363 A 56.82353506352953 56.82353506352953 0 0 0 21.40063509461097,-12.933012701892217 Z M 70.91798563775473,-16.48097481000466 L 70.54656237118424,-15.552511155869453 A 55.82353506352953 55.82353506352953 0 0 1 74.58107506487873,-13.750179406540683 L 73.24998742897489,-11.061647147938618 L 81.07616494093419,-11.092396965865385 L 76.3558585794172,-17.334889084676767 L 75.02477094351336,-14.646356826074703 A 56.82353506352953 56.82353506352953 0 0 0 70.91798563775473,-16.48097481000466"/><text text-anchor="middle" pointer-events="none" font-size="8px" fill="#000000" x="48.013727898536644" y="-17.01719548002425" font-family="sans-serif">twowheeler</text></g><g class="relationship" transform="translate(30.325594174590226 167.55345030227036) rotate(396.1392357329528)"><path class="outline" fill="#A5ABB6" stroke="none" d="M 24.018736134675446,-6.953439040707552 L 24.277555179777966,-5.987513214418485 A 121.09600124211813 121.09600124211813 0 0 1 30.8527186900911,-7.554029962157756 L 30.648196760028462,-8.53289194432044 A 122.09600124211813 122.09600124211813 0 0 0 24.018736134675446,-6.953439040707552 Z M 77.01560312523847,-9.224415924355284 L 76.84036318027245,-8.23989016964478 A 121.09600124211813 121.09600124211813 0 0 1 83.45931804719221,-6.870150640398373 L 82.76962199179894,-3.950506937619732 L 90.38676936290791,-5.747467128277199 L 84.37891278771656,-10.763008910769894 L 83.68921673232329,-7.843365207991253 A 122.09600124211813 122.09600124211813 0 0 0 77.01560312523847,-9.224415924355284"/><text text-anchor="middle" pointer-events="none" font-size="8px" fill="#000000" x="53.80622421266003" y="-7.600238492175251" font-family="sans-serif">twowheeler</text></g><g class="relationship" transform="translate(-73.13218960106964 165.38051647122694) rotate(411.06028550187705)"><path class="outline" fill="#A5ABB6" stroke="none" d="M 25 0.5 L 48.970988872012796 0.5 L 48.970988872012796 -0.5 L 25 -0.5 Z M 68.3069263720128 0.5 L 92.27791524402559 0.5 L 92.27791524402559 3.5 L 99.27791524402559 0 L 92.27791524402559 -3.5 L 92.27791524402559 -0.5 L 68.3069263720128 -0.5 Z"/><text text-anchor="middle" pointer-events="none" font-size="8px" fill="#000000" x="58.638957622012796" y="3" font-family="sans-serif">trek</text></g><g class="relationship" transform="translate(4.976771564002286 262.0448346197273) rotate(347.18628520883624)"><path class="outline" fill="#A5ABB6" stroke="none" d="M 25 0.5 L 47.33518318257018 0.5 L 47.33518318257018 -0.5 L 25 -0.5 Z M 66.67112068257018 0.5 L 89.00630386514035 0.5 L 89.00630386514035 3.5 L 96.00630386514035 0 L 89.00630386514035 -3.5 L 89.00630386514035 -0.5 L 66.67112068257018 -0.5 Z"/><text text-anchor="middle" pointer-events="none" font-size="8px" fill="#000000" x="57.00315193257018" y="3" font-family="sans-serif">trek</text></g></g><g class="layer nodes"><g class="node" transform="translate(112.66326099872703,-85.54805349486895)"><circle class="outline" cx="0" cy="0" r="25" fill="#F16667" stroke="#eb2728" stroke-width="2px"/><text text-anchor="middle" pointer-events="none" font-family="sans-serif" dy="1.5625" font-size="25" fill="#FFFFFF"/><text text-anchor="middle" pointer-events="none" x="0" y="5" font-size="10px" fill="#FFFFFF" font-family="sans-serif"> Darjeeling</text></g><g class="node" transform="translate(122.96957009710457,235.2078252962311)"><circle class="outline" cx="0" cy="0" r="25" fill="#8DCC93" stroke="#5db665" stroke-width="2px"/><text text-anchor="middle" pointer-events="none" font-family="sans-serif" dy="1.5625" font-size="25" fill="#2A2C34"/><text text-anchor="middle" pointer-events="none" x="0" y="5" font-size="10px" fill="#2A2C34" font-family="sans-serif"> Sandak…</text></g><g class="node" transform="translate(107.07406635973436,25.999641854808026)"><circle class="outline" cx="0" cy="0" r="25" fill="#F16667" stroke="#eb2728" stroke-width="2px"/><text text-anchor="middle" pointer-events="none" font-family="sans-serif" dy="1.5625" font-size="25" fill="#FFFFFF"/><text text-anchor="middle" pointer-events="none" x="0" y="5" font-size="10px" fill="#FFFFFF" font-family="sans-serif"> Rimbik</text></g><g class="node" transform="translate(180.4533850348919,128.36049871143004)"><circle class="outline" cx="0" cy="0" r="25" fill="#D9C8AE" stroke="#c0a378" stroke-width="2px"/><text text-anchor="middle" pointer-events="none" font-family="sans-serif" dy="1.5625" font-size="25" fill="#2A2C34"/><text text-anchor="middle" pointer-events="none" x="0" y="5" font-size="10px" fill="#2A2C34" font-family="sans-serif"> BhikeBh…</text></g><g class="node" transform="translate(206.3611927275347,-31.75481444967739)"><circle class="outline" cx="0" cy="0" r="25" fill="#D9C8AE" stroke="#c0a378" stroke-width="2px"/><text text-anchor="middle" pointer-events="none" font-family="sans-serif" dy="1.5625" font-size="25" fill="#2A2C34"/><text text-anchor="middle" pointer-events="none" x="0" y="5" font-size="10px" fill="#2A2C34" font-family="sans-serif"> Tumbling</text></g><g class="node" transform="translate(272.2269620770269,60.868304774458935)"><circle class="outline" cx="0" cy="0" r="25" fill="#D9C8AE" stroke="#c0a378" stroke-width="2px"/><text text-anchor="middle" pointer-events="none" font-family="sans-serif" dy="1.5625" font-size="25" fill="#2A2C34"/><text text-anchor="middle" pointer-events="none" x="0" y="5" font-size="10px" fill="#2A2C34" font-family="sans-serif"> Gairibus</text></g><g class="node" transform="translate(-10.11392453378217,64.77685310901843)"><circle class="outline" cx="0" cy="0" r="25" fill="#D9C8AE" stroke="#c0a378" stroke-width="2px"/><text text-anchor="middle" pointer-events="none" font-family="sans-serif" dy="1.5625" font-size="25" fill="#2A2C34"/><text text-anchor="middle" pointer-events="none" x="0" y="5" font-size="10px" fill="#2A2C34" font-family="sans-serif"> Sirikhola</text></g><g class="node" transform="translate(30.325594174590226,167.55345030227036)"><circle class="outline" cx="0" cy="0" r="25" fill="#D9C8AE" stroke="#c0a378" stroke-width="2px"/><text text-anchor="middle" pointer-events="none" font-family="sans-serif" dy="1.5625" font-size="25" fill="#2A2C34"/><text text-anchor="middle" pointer-events="none" x="0" y="5" font-size="10px" fill="#2A2C34" font-family="sans-serif"> Gurdum</text></g><g class="node" transform="translate(-73.13218960106964,165.38051647122694)"><circle class="outline" cx="0" cy="0" r="25" fill="#D9C8AE" stroke="#c0a378" stroke-width="2px"/><text text-anchor="middle" pointer-events="none" font-family="sans-serif" dy="1.5625" font-size="25" fill="#2A2C34"/><text text-anchor="middle" pointer-events="none" x="0" y="5" font-size="10px" fill="#2A2C34" font-family="sans-serif"> Rammam</text></g><g class="node" transform="translate(4.976771564002286,262.0448346197273)"><circle class="outline" cx="0" cy="0" r="25" fill="#8DCC93" stroke="#5db665" stroke-width="2px"/><text text-anchor="middle" pointer-events="none" font-family="sans-serif" dy="1.5625" font-size="25" fill="#2A2C34"/><text text-anchor="middle" pointer-events="none" x="0" y="5" font-size="10px" fill="#2A2C34" font-family="sans-serif"> Sabargr…</text></g></g></svg>